<?xml version="1.0" encoding="utf-8"?>
<svg width="116" height="32" fill="none" xmlns="http://www.w3.org/2000/svg">
    <path d="M16 32c8.837 0 16-7.163 16-16S24.837 0 16 0 0 7.163 0 16s7.163 16 16 16z" fill="#fd5631"/>
    <path opacity=".55" d="M31.656 19.303l-9.67-9.67a8.1 8.1 0 0 0-11.458 0l-.034.034a8.1 8.1 0 0 0 0 11.458L20.68 31.312c5.505-1.686 9.772-6.297 10.976-12.01z" fill="#be1e2d"/>
    <path d="M26.392 22.194l-3.166-3.166c.585-1.135.963-2.477.963-3.82 0-4.473-3.613-8.12-8.12-8.12s-8.086 3.647-8.086 8.155a8.09 8.09 0 0 0 8.12 8.121c1.342 0 2.684-.38 3.82-.963l3.166 3.166c.963.963 2.374.963 3.338 0 .826-.963.826-2.41-.034-3.372zm-10.288-.757c-3.44 0-6.194-2.753-6.194-6.194s2.753-6.194 6.194-6.194 6.194 2.753 6.194 6.194-2.753 6.194-6.194 6.194z" fill="#fff"/>
    <text style="fill: rgb(227, 57, 57); font-family: Arial, sans-serif; font-size: 18px; white-space: pre; transform-box: fill-box; transform-origin: 17.4058px 6.19216px;" transform="matrix(1.04095, 0.016423, -0.019953, 1.26454, -1.903989, -0.715117)" x="42.225" y="20.438" dx="0 0 0 0 0 0.166" dy="0 0 0 0 0 -0.305">GShop</text>
</svg>